<?xml version="1.0" standalone="no"?>
<!DOCTYPE svg PUBLIC "-//W3C//DTD SVG 20010904//EN"
 "http://www.w3.org/TR/2001/REC-SVG-20010904/DTD/svg10.dtd">
<svg version="1.0" xmlns="http://www.w3.org/2000/svg"
 width="260.000000pt" height="260.000000pt" viewBox="0 0 260.000000 260.000000"
 preserveAspectRatio="xMidYMid meet">
<metadata>
Created by potrace 1.11, written by Peter Selinger 2001-2013
</metadata>
<g transform="translate(0.000000,260.000000) scale(0.100000,-0.100000)"
fill="#000000" stroke="none">
<path d="M1996 2227 c3 -10 9 -15 12 -12 3 3 0 11 -7 18 -10 9 -11 8 -5 -6z"/>
<path d="M795 2220 c-16 -7 -17 -9 -3 -9 9 -1 20 4 23 9 7 11 7 11 -20 0z"/>
<path d="M2035 2208 c5 -23 2 -24 -51 -26 -49 -1 -55 1 -50 16 6 15 5 15 -8 0
-16 -22 -112 -27 -100 -5 6 9 4 9 -7 1 -8 -6 -43 -12 -79 -13 -36 -2 -66 -4
-68 -6 -2 -1 -3 -56 -4 -122 l-1 -119 -69 -2 c-54 -2 -68 0 -62 10 6 10 4 10
-8 0 -10 -8 -35 -12 -65 -10 l-48 4 1 -88 c1 -53 -2 -85 -8 -82 -5 3 -4 -4 4
-15 11 -18 11 -23 -2 -31 -10 -6 -11 -10 -2 -10 6 0 12 -7 12 -15 0 -8 -5 -15
-11 -15 -5 0 -7 5 -3 12 5 7 3 8 -7 2 -18 -11 -209 -15 -209 -4 0 5 11 7 25 5
17 -1 29 4 36 17 6 11 8 22 6 25 -3 2 -8 -5 -12 -16 -3 -12 -10 -19 -15 -16
-5 3 -7 12 -4 20 4 9 -5 21 -25 32 -30 18 -44 40 -18 30 7 -3 22 2 32 10 14
11 15 14 4 10 -9 -3 -23 3 -33 14 -19 23 -20 36 -3 42 10 4 10 6 0 6 -7 1 -13
13 -13 29 0 21 3 24 10 12 7 -12 9 -11 8 6 -1 13 -9 20 -22 20 -12 -1 -20 5
-18 12 1 8 -2 11 -8 7 -6 -3 -7 -11 -4 -17 8 -13 -48 -7 -58 7 -5 6 -8 5 -8
-2 0 -24 -35 -13 -52 17 -16 28 -16 30 0 40 9 5 11 10 5 10 -7 0 -20 -11 -29
-26 -13 -19 -14 -28 -5 -37 10 -9 11 -8 6 6 -4 9 -3 17 3 17 8 0 22 -22 22
-34 0 -5 -90 -2 -91 3 -6 30 -4 71 3 71 5 0 7 -10 3 -22 -5 -19 -4 -20 5 -6
11 18 3 51 -10 43 -5 -3 -9 13 -8 35 0 22 5 40 10 40 5 0 7 -4 3 -9 -9 -15 15
-25 28 -12 9 9 7 10 -7 5 -14 -5 -17 -4 -12 4 4 7 1 14 -6 17 -8 3 -15 20 -16
37 -3 40 -5 41 -46 41 -23 0 -33 4 -29 13 2 6 0 15 -5 18 -5 3 -9 -2 -8 -12 1
-14 -10 -17 -71 -20 -72 -3 -79 0 -74 31 1 5 -3 6 -8 2 -6 -3 -8 -12 -5 -19 4
-11 -19 -14 -120 -13 -70 0 -129 -2 -132 -5 -3 -3 -5 -161 -6 -352 0 -255 -3
-344 -12 -339 -8 5 -8 3 1 -8 16 -20 16 -482 0 -472 -9 5 -9 3 0 -8 8 -10 11
-94 11 -287 0 -150 2 -276 5 -279 3 -2 107 -4 232 -4 176 0 224 -2 219 -12 -5
-8 -2 -7 9 2 9 7 23 11 30 8 9 -3 12 9 11 47 0 28 4 54 10 58 8 6 7 8 -1 8 -7
0 -12 16 -11 40 0 22 5 40 10 40 5 0 6 -5 3 -10 -3 -6 1 -13 9 -16 9 -3 14
-10 11 -14 -2 -4 5 -16 18 -26 l22 -19 -19 23 c-14 17 -16 22 -5 22 8 1 3 7
-11 15 -14 8 -20 15 -15 15 6 0 1 7 -10 16 -16 12 -17 16 -6 24 17 10 25 46
12 54 -4 3 -7 -6 -5 -19 1 -14 -1 -25 -5 -25 -4 0 -7 42 -7 94 0 52 4 92 9 89
4 -3 6 -12 2 -22 -5 -13 -4 -13 6 -4 10 10 9 17 -6 33 -14 15 -15 20 -4 20 9
0 10 3 3 8 -13 9 -14 42 -1 42 5 0 6 -8 2 -17 -5 -15 -4 -16 7 -5 11 11 10 16
-6 28 -20 14 -20 14 0 28 16 12 17 17 6 28 -11 11 -12 10 -7 -4 4 -10 3 -18
-2 -18 -5 0 -10 11 -11 26 -1 16 2 23 9 18 8 -5 8 -1 0 14 -16 30 -14 42 6 36
15 -5 15 -3 -1 10 -20 16 -20 16 0 31 10 8 15 15 9 15 -5 1 -1 6 10 11 l20 9
-20 -3 c-11 -2 -19 -9 -18 -15 2 -7 -1 -12 -6 -12 -15 0 -7 104 9 118 13 12
13 13 -1 9 -13 -4 -15 9 -15 97 l1 102 30 0 c16 -1 36 -5 44 -10 10 -6 12 -6
7 2 -4 8 19 11 79 10 l86 0 -1 -217 c-1 -119 -1 -231 -1 -249 l1 -33 127 3
127 3 -1 122 c-1 94 2 124 13 134 8 6 14 16 14 22 0 6 -6 3 -13 -7 -11 -15
-13 -11 -15 29 -1 32 2 44 10 39 7 -5 8 -3 2 7 -12 19 -13 109 -1 116 6 3 7 2
4 -3 -3 -6 -2 -16 2 -23 6 -9 9 -4 9 13 0 15 -6 26 -14 26 -8 0 -14 3 -14 8 0
4 56 8 125 9 l124 2 0 -496 c1 -273 2 -498 4 -500 2 -1 67 -4 145 -5 98 -1
139 -5 135 -12 -3 -6 0 -5 8 2 7 6 28 12 47 12 24 0 31 -4 26 -12 -6 -10 -4
-10 7 0 7 7 38 12 71 12 66 0 61 -10 60 121 l-1 66 27 -4 27 -4 -26 13 c-19
10 -25 21 -26 48 0 19 4 41 11 49 8 12 8 13 -1 7 -8 -4 -13 -1 -13 9 0 12 6
15 23 11 l22 -6 -22 11 c-31 16 -29 27 5 22 l27 -4 -25 13 c-29 15 -34 31 -19
60 7 12 7 18 1 14 -13 -8 -11 113 2 133 6 10 6 12 -2 7 -7 -4 -12 -1 -12 7 0
10 9 13 28 10 l27 -4 -25 13 c-29 15 -34 31 -19 60 7 12 7 18 1 14 -13 -8 -11
113 2 133 6 10 6 12 -2 7 -7 -4 -12 -1 -12 7 0 10 9 13 28 10 l27 -4 -25 13
c-21 10 -26 20 -25 48 0 19 4 41 9 49 6 10 6 12 -2 7 -7 -4 -12 -1 -12 9 0 12
6 15 23 11 l22 -6 -22 11 c-31 16 -29 27 5 22 l27 -4 -25 13 c-29 15 -34 31
-19 60 7 12 7 18 1 14 -13 -8 -11 113 2 133 6 10 6 12 -2 7 -7 -4 -12 -1 -12
7 0 10 9 13 28 10 l27 -4 -25 13 c-29 15 -34 31 -19 60 7 12 7 18 1 14 -13 -8
-11 113 2 133 6 10 6 12 -2 7 -7 -4 -12 -1 -12 7 0 10 9 13 28 10 l27 -4 -26
13 c-25 13 -25 15 -26 125 0 62 3 111 6 108 4 -2 13 1 21 6 12 8 11 9 -5 7
-13 -2 -21 4 -23 17 -2 11 -9 25 -14 30 -8 7 -9 6 -5 -1 5 -8 -11 -11 -48 -11
-30 0 -56 3 -56 8 -1 5 -2 13 -3 18 0 5 -4 13 -8 16 -4 4 -5 -3 -3 -17z m-845
-403 c11 -13 10 -14 -4 -9 -9 3 -16 10 -16 15 0 13 6 11 20 -6z m22 -68 c8
-14 -2 -38 -13 -31 -5 3 -7 9 -4 14 3 5 1 11 -4 15 -6 3 -8 -3 -6 -15 2 -11 0
-20 -6 -20 -5 0 -8 13 -7 29 2 21 6 27 18 23 8 -3 18 -10 22 -15z"/>
<path d="M2097 2209 c4 -13 8 -18 11 -10 2 7 -1 18 -6 23 -8 8 -9 4 -5 -13z"/>
<path d="M2167 2219 c7 -7 15 -10 18 -7 3 3 -2 9 -12 12 -14 6 -15 5 -6 -5z"/>
<path d="M621 2204 c0 -11 3 -14 6 -6 3 7 2 16 -1 19 -3 4 -6 -2 -5 -13z"/>
<path d="M755 2210 c-4 -6 -11 -8 -16 -5 -5 4 -9 1 -9 -4 0 -16 16 -13 30 4 7
8 10 15 7 15 -3 0 -9 -5 -12 -10z"/>
<path d="M1953 2205 c0 -8 4 -12 9 -9 5 3 6 10 3 15 -9 13 -12 11 -12 -6z"/>
<path d="M526 2202 c-3 -5 1 -9 9 -9 8 0 12 4 9 9 -3 4 -7 8 -9 8 -2 0 -6 -4
-9 -8z"/>
<path d="M935 2200 c3 -5 8 -10 11 -10 2 0 4 5 4 10 0 6 -5 10 -11 10 -5 0 -7
-4 -4 -10z"/>
<path d="M973 2189 c-2 -23 3 -25 10 -4 4 8 3 16 -1 19 -4 3 -9 -4 -9 -15z"/>
<path d="M1750 2196 c7 -7 13 -7 20 0 6 6 3 10 -10 10 -13 0 -16 -4 -10 -10z"/>
<path d="M2066 2198 c3 -5 10 -6 15 -3 13 9 11 12 -6 12 -8 0 -12 -4 -9 -9z"/>
<path d="M2210 2179 c0 -5 5 -7 10 -4 6 3 10 8 10 11 0 2 -4 4 -10 4 -5 0 -10
-5 -10 -11z"/>
<path d="M950 2149 c0 -5 -5 -7 -12 -3 -7 4 -8 3 -4 -4 4 -6 13 -9 21 -6 8 4
12 10 9 15 -7 12 -14 11 -14 -2z"/>
<path d="M2196 2114 c-8 -20 -8 -24 2 -24 4 0 8 9 9 20 2 24 -3 26 -11 4z"/>
<path d="M2216 2082 c-3 -5 1 -9 9 -9 8 0 12 4 9 9 -3 4 -7 8 -9 8 -2 0 -6 -4
-9 -8z"/>
<path d="M995 2070 c-4 -6 -11 -7 -17 -4 -7 4 -8 2 -4 -5 6 -9 11 -9 22 0 14
11 18 19 10 19 -3 0 -8 -5 -11 -10z"/>
<path d="M930 2049 c0 -5 5 -7 10 -4 6 3 10 8 10 11 0 2 -4 4 -10 4 -5 0 -10
-5 -10 -11z"/>
<path d="M2188 2053 c6 -2 18 -2 25 0 6 3 1 5 -13 5 -14 0 -19 -2 -12 -5z"/>
<path d="M2233 2045 c0 -8 4 -12 9 -9 5 3 6 10 3 15 -9 13 -12 11 -12 -6z"/>
<path d="M954 2039 c-4 -7 1 -16 11 -21 14 -8 15 -12 4 -19 -9 -6 -10 -9 -2
-9 20 0 24 17 9 33 -8 8 -12 17 -9 21 4 3 4 6 0 6 -3 0 -9 -5 -13 -11z"/>
<path d="M996 2033 c-6 -14 -5 -15 5 -6 7 7 10 15 7 18 -3 3 -9 -2 -12 -12z"/>
<path d="M2185 2029 c-4 -6 -5 -12 -2 -15 2 -3 7 2 10 11 7 17 1 20 -8 4z"/>
<path d="M2205 2019 c-4 -6 -5 -12 -2 -15 2 -3 7 2 10 11 7 17 1 20 -8 4z"/>
<path d="M1046 2002 c-3 -5 1 -9 9 -9 8 0 12 4 9 9 -3 4 -7 8 -9 8 -2 0 -6 -4
-9 -8z"/>
<path d="M2270 2000 c0 -5 5 -10 11 -10 5 0 7 5 4 10 -3 6 -8 10 -11 10 -2 0
-4 -4 -4 -10z"/>
<path d="M2184 1988 c3 -15 26 -23 26 -8 0 6 -4 9 -9 6 -5 -4 -12 -1 -14 4 -3
6 -4 5 -3 -2z"/>
<path d="M950 1969 c0 -5 5 -7 10 -4 6 3 10 8 10 11 0 2 -4 4 -10 4 -5 0 -10
-5 -10 -11z"/>
<path d="M1055 1970 c6 -10 4 -12 -11 -6 -15 6 -17 5 -6 -5 9 -9 15 -10 23 -2
8 8 7 13 -2 18 -8 6 -10 4 -4 -5z"/>
<path d="M1594 1960 c0 -13 4 -16 10 -10 7 7 7 13 0 20 -6 6 -10 3 -10 -10z"/>
<path d="M1632 1954 c-7 -8 -8 -14 -3 -14 10 0 25 19 20 25 -2 1 -10 -3 -17
-11z"/>
<path d="M2240 1966 c0 -2 8 -10 18 -17 15 -13 16 -12 3 4 -13 16 -21 21 -21
13z"/>
<path d="M1558 1943 c7 -3 16 -2 19 1 4 3 -2 6 -13 5 -11 0 -14 -3 -6 -6z"/>
<path d="M2190 1940 c0 -5 5 -10 10 -10 6 0 10 5 10 10 0 6 -4 10 -10 10 -5 0
-10 -4 -10 -10z"/>
<path d="M1210 1891 c0 -6 4 -13 10 -16 6 -3 7 1 4 9 -7 18 -14 21 -14 7z"/>
<path d="M2246 1858 c3 -5 10 -6 15 -3 13 9 11 12 -6 12 -8 0 -12 -4 -9 -9z"/>
<path d="M1200 1850 c-23 -7 -23 -8 -3 -9 12 -1 25 4 28 9 3 6 5 10 3 9 -2 -1
-14 -5 -28 -9z"/>
<path d="M2186 1845 c-9 -26 -7 -32 5 -12 6 10 9 21 6 23 -2 3 -7 -2 -11 -11z"/>
<path d="M2255 1829 c-4 -6 -5 -12 -2 -15 2 -3 7 2 10 11 7 17 1 20 -8 4z"/>
<path d="M1227 1790 c-15 -15 -16 -19 -3 -29 11 -10 19 -10 33 -1 17 11 17 11
0 6 -28 -9 -41 4 -20 19 10 7 16 15 13 18 -3 2 -13 -3 -23 -13z"/>
<path d="M2185 1800 c-3 -5 -1 -10 4 -10 6 0 11 5 11 10 0 6 -2 10 -4 10 -3 0
-8 -4 -11 -10z"/>
<path d="M1347 1779 c7 -7 15 -10 18 -7 3 3 -2 9 -12 12 -14 6 -15 5 -6 -5z"/>
<path d="M2250 1781 c0 -6 4 -13 10 -16 6 -3 7 1 4 9 -7 18 -14 21 -14 7z"/>
<path d="M1282 1758 c-15 -15 -15 -28 0 -28 6 0 8 3 5 7 -4 3 -2 12 4 20 14
16 7 17 -9 1z"/>
<path d="M2192 1761 c-11 -6 -10 -10 4 -15 9 -3 19 -4 22 -1 3 3 0 5 -7 5 -7
0 -9 5 -6 10 7 12 4 12 -13 1z"/>
<path d="M2231 1753 c7 -12 15 -20 18 -17 3 2 -3 12 -13 22 -17 16 -18 16 -5
-5z"/>
<path d="M1345 1740 c-3 -6 1 -7 9 -4 18 7 21 14 7 14 -6 0 -13 -4 -16 -10z"/>
<path d="M1308 1733 c7 -3 16 -2 19 1 4 3 -2 6 -13 5 -11 0 -14 -3 -6 -6z"/>
<path d="M1260 1700 c0 -5 5 -10 11 -10 5 0 7 5 4 10 -3 6 -8 10 -11 10 -2 0
-4 -4 -4 -10z"/>
<path d="M1296 1701 c-3 -4 6 -6 19 -3 14 2 25 6 25 8 0 8 -39 4 -44 -5z"/>
<path d="M1370 1699 c0 -5 5 -7 10 -4 6 3 10 8 10 11 0 2 -4 4 -10 4 -5 0 -10
-5 -10 -11z"/>
<path d="M2190 1700 c0 -5 5 -10 10 -10 6 0 10 5 10 10 0 6 -4 10 -10 10 -5 0
-10 -4 -10 -10z"/>
<path d="M2255 1651 c-3 -5 -2 -12 3 -15 5 -3 9 1 9 9 0 17 -3 19 -12 6z"/>
<path d="M2186 1605 c-9 -26 -7 -32 5 -12 6 10 9 21 6 23 -2 3 -7 -2 -11 -11z"/>
<path d="M2185 1560 c-3 -5 -1 -10 4 -10 6 0 11 5 11 10 0 6 -2 10 -4 10 -3 0
-8 -4 -11 -10z"/>
<path d="M2192 1521 c-11 -6 -10 -10 4 -15 9 -3 19 -4 22 -1 3 3 0 5 -7 5 -7
0 -9 5 -6 10 7 12 4 12 -13 1z"/>
<path d="M2220 1526 c0 -2 8 -10 18 -17 15 -13 16 -12 3 4 -13 16 -21 21 -21
13z"/>
<path d="M2190 1460 c0 -5 5 -10 10 -10 6 0 10 5 10 10 0 6 -4 10 -10 10 -5 0
-10 -4 -10 -10z"/>
<path d="M2250 1461 c0 -6 4 -13 10 -16 6 -3 7 1 4 9 -7 18 -14 21 -14 7z"/>
<path d="M2227 1439 c7 -9 10 -19 6 -22 -3 -4 -1 -7 5 -7 17 0 15 16 -5 31
-16 12 -17 12 -6 -2z"/>
<path d="M960 1409 c0 -5 -4 -7 -10 -4 -15 9 -12 -4 4 -20 11 -12 14 -10 14
11 0 13 -2 24 -4 24 -2 0 -4 -5 -4 -11z"/>
<path d="M1018 1409 c-4 -11 1 -15 17 -15 13 0 21 4 19 8 -3 5 -9 6 -14 3 -4
-3 -10 0 -12 7 -3 8 -6 7 -10 -3z"/>
<path d="M1575 1409 c-4 -6 -5 -12 -2 -15 2 -3 7 2 10 11 7 17 1 20 -8 4z"/>
<path d="M1634 1409 c-3 -6 -2 -15 3 -20 5 -5 9 -1 9 11 0 23 -2 24 -12 9z"/>
<path d="M1468 1383 c6 -2 18 -2 25 0 6 3 1 5 -13 5 -14 0 -19 -2 -12 -5z"/>
<path d="M2228 1383 c7 -3 16 -2 19 1 4 3 -2 6 -13 5 -11 0 -14 -3 -6 -6z"/>
<path d="M930 1365 c0 -8 2 -15 4 -15 2 0 6 7 10 15 3 8 1 15 -4 15 -6 0 -10
-7 -10 -15z"/>
<path d="M976 1365 c-4 -11 -2 -14 6 -9 7 5 9 2 6 -8 -4 -8 0 -15 7 -15 11 0
11 5 3 21 -15 29 -15 29 -22 11z"/>
<path d="M1010 1376 c0 -2 8 -10 18 -17 15 -13 16 -12 3 4 -13 16 -21 21 -21
13z"/>
<path d="M1460 1366 c0 -2 8 -10 18 -17 15 -13 16 -12 3 4 -13 16 -21 21 -21
13z"/>
<path d="M1495 1360 c3 -5 8 -10 11 -10 2 0 4 5 4 10 0 6 -5 10 -11 10 -5 0
-7 -4 -4 -10z"/>
<path d="M1545 1360 c-3 -6 1 -7 9 -4 18 7 21 14 7 14 -6 0 -13 -4 -16 -10z"/>
<path d="M2214 1354 c1 -8 4 -15 7 -16 2 -2 3 -1 2 1 -2 2 2 9 7 16 7 8 5 12
-4 12 -8 0 -13 -6 -12 -13z"/>
<path d="M950 1351 c0 -6 4 -13 10 -16 6 -3 7 1 4 9 -7 18 -14 21 -14 7z"/>
<path d="M1446 1329 c21 -23 23 -23 20 -2 -2 9 -11 17 -20 19 -17 2 -17 2 0
-17z"/>
<path d="M2190 1341 c0 -6 4 -13 10 -16 6 -3 7 1 4 9 -7 18 -14 21 -14 7z"/>
<path d="M2254 1329 c-3 -6 -2 -15 3 -20 5 -5 9 -1 9 11 0 23 -2 24 -12 9z"/>
<path d="M939 1308 c-6 -21 -5 -37 2 -32 5 3 6 10 3 16 -5 8 -1 9 10 5 10 -4
15 -3 11 3 -5 9 -24 14 -26 8z"/>
<path d="M1010 1301 c0 -6 4 -13 10 -16 6 -3 7 1 4 9 -7 18 -14 21 -14 7z"/>
<path d="M1435 1300 c3 -5 8 -10 11 -10 2 0 4 5 4 10 0 6 -5 10 -11 10 -5 0
-7 -4 -4 -10z"/>
<path d="M2190 1300 c0 -5 5 -10 10 -10 6 0 10 5 10 10 0 6 -4 10 -10 10 -5 0
-10 -4 -10 -10z"/>
<path d="M1456 1285 c-3 -8 -1 -15 4 -15 6 0 10 7 10 15 0 8 -2 15 -4 15 -2 0
-6 -7 -10 -15z"/>
<path d="M964 1274 c-18 -14 -18 -15 4 -4 12 6 22 13 22 15 0 8 -5 6 -26 -11z"/>
<path d="M1475 1259 c-3 -4 2 -6 10 -5 21 3 28 13 10 13 -9 0 -18 -4 -20 -8z"/>
<path d="M960 1250 c-23 -7 -23 -8 -3 -9 12 -1 25 4 28 9 3 6 5 10 3 9 -2 -1
-14 -5 -28 -9z"/>
<path d="M1430 1250 c0 -5 7 -7 15 -4 8 4 15 8 15 10 0 2 -7 4 -15 4 -8 0 -15
-4 -15 -10z"/>
<path d="M1476 1221 c-3 -5 1 -14 8 -20 10 -9 16 -9 21 -1 4 6 1 9 -7 8 -7 -2
-12 3 -10 10 2 14 -4 16 -12 3z"/>
<path d="M2246 1218 c3 -5 10 -6 15 -3 13 9 11 12 -6 12 -8 0 -12 -4 -9 -9z"/>
<path d="M2186 1205 c-9 -26 -7 -32 5 -12 6 10 9 21 6 23 -2 3 -7 -2 -11 -11z"/>
<path d="M2255 1189 c-4 -6 -5 -12 -2 -15 2 -3 7 2 10 11 7 17 1 20 -8 4z"/>
<path d="M962 1164 c23 -25 39 -34 18 -9 -6 8 -9 18 -7 22 3 5 -3 9 -13 10
-17 2 -17 0 2 -23z"/>
<path d="M935 1159 c-4 -6 -5 -12 -2 -15 2 -3 7 2 10 11 7 17 1 20 -8 4z"/>
<path d="M1430 1160 c0 -6 7 -10 15 -10 8 0 15 2 15 4 0 2 -7 6 -15 10 -8 3
-15 1 -15 -4z"/>
<path d="M2185 1160 c-3 -5 -1 -10 4 -10 6 0 11 5 11 10 0 6 -2 10 -4 10 -3 0
-8 -4 -11 -10z"/>
<path d="M2250 1141 c0 -6 4 -13 10 -16 6 -3 7 1 4 9 -7 18 -14 21 -14 7z"/>
<path d="M1430 1135 c0 -5 5 -17 10 -25 5 -8 10 -10 10 -5 0 6 -5 17 -10 25
-5 8 -10 11 -10 5z"/>
<path d="M976 1113 c-6 -14 -5 -15 5 -6 7 7 10 15 7 18 -3 3 -9 -2 -12 -12z"/>
<path d="M1470 1126 c0 -2 7 -7 16 -10 8 -3 12 -2 9 4 -6 10 -25 14 -25 6z"/>
<path d="M2192 1121 c-11 -6 -10 -10 4 -15 9 -3 19 -4 22 -1 3 3 0 5 -7 5 -7
0 -9 5 -6 10 7 12 4 12 -13 1z"/>
<path d="M2231 1113 c7 -12 15 -20 18 -17 3 2 -3 12 -13 22 -17 16 -18 16 -5
-5z"/>
<path d="M950 1081 c0 -6 4 -13 10 -16 6 -3 7 1 4 9 -7 18 -14 21 -14 7z"/>
<path d="M1450 1080 c0 -5 5 -10 10 -10 6 0 10 5 10 10 0 6 -4 10 -10 10 -5 0
-10 -4 -10 -10z"/>
<path d="M1434 1056 c0 -13 3 -22 5 -20 2 2 11 -2 19 -9 14 -11 9 -1 -24 51
-1 2 -1 -8 0 -22z"/>
<path d="M989 1058 c7 -9 9 -23 5 -30 -6 -10 -4 -11 7 0 11 10 10 15 -6 30
-17 15 -18 15 -6 0z"/>
<path d="M2190 1060 c0 -5 5 -10 10 -10 6 0 10 5 10 10 0 6 -4 10 -10 10 -5 0
-10 -4 -10 -10z"/>
<path d="M1115 1040 c3 -5 8 -10 11 -10 2 0 4 5 4 10 0 6 -5 10 -11 10 -5 0
-7 -4 -4 -10z"/>
<path d="M950 1033 c5 -2 8 -9 4 -14 -3 -5 0 -9 6 -9 15 0 7 23 -8 26 -7 1 -8
0 -2 -3z"/>
<path d="M2255 1011 c-3 -5 -2 -12 3 -15 5 -3 9 1 9 9 0 17 -3 19 -12 6z"/>
<path d="M1455 999 c-4 -6 -5 -12 -2 -15 2 -3 7 2 10 11 7 17 1 20 -8 4z"/>
<path d="M2186 965 c-9 -26 -7 -32 5 -12 6 10 9 21 6 23 -2 3 -7 -2 -11 -11z"/>
<path d="M957 953 c-10 -9 -9 -23 1 -23 5 0 9 7 9 15 0 17 -1 18 -10 8z"/>
<path d="M1456 938 c3 -5 10 -6 15 -3 13 9 11 12 -6 12 -8 0 -12 -4 -9 -9z"/>
<path d="M2185 920 c-3 -5 -1 -10 4 -10 6 0 11 5 11 10 0 6 -2 10 -4 10 -3 0
-8 -4 -11 -10z"/>
<path d="M959 898 c-6 -23 -7 -48 -1 -48 4 0 8 11 8 25 0 21 -4 33 -7 23z"/>
<path d="M2192 881 c-11 -6 -10 -10 4 -15 9 -3 19 -4 22 -1 3 3 0 5 -7 5 -7 0
-9 5 -6 10 7 12 4 12 -13 1z"/>
<path d="M2220 886 c0 -2 8 -10 18 -17 15 -13 16 -12 3 4 -13 16 -21 21 -21
13z"/>
<path d="M956 814 c-8 -20 -8 -24 2 -24 4 0 8 9 9 20 2 24 -3 26 -11 4z"/>
<path d="M2190 820 c0 -5 5 -10 10 -10 6 0 10 5 10 10 0 6 -4 10 -10 10 -5 0
-10 -4 -10 -10z"/>
<path d="M2250 821 c0 -6 4 -13 10 -16 6 -3 7 1 4 9 -7 18 -14 21 -14 7z"/>
<path d="M2227 799 c7 -9 10 -19 6 -22 -3 -4 -1 -7 5 -7 17 0 15 16 -5 31 -16
12 -17 12 -6 -2z"/>
<path d="M935 760 c0 -15 3 -26 8 -23 4 2 7 13 7 23 0 10 -3 21 -7 23 -5 3 -8
-8 -8 -23z"/>
<path d="M956 734 c-8 -20 -8 -24 2 -24 4 0 8 9 9 20 2 24 -3 26 -11 4z"/>
<path d="M2228 743 c7 -3 16 -2 19 1 4 3 -2 6 -13 5 -11 0 -14 -3 -6 -6z"/>
<path d="M2214 714 c1 -8 4 -15 7 -16 2 -2 3 -1 2 1 -2 2 2 9 7 16 7 8 5 12
-4 12 -8 0 -13 -6 -12 -13z"/>
<path d="M2190 701 c0 -6 4 -13 10 -16 6 -3 7 1 4 9 -7 18 -14 21 -14 7z"/>
<path d="M2254 689 c-3 -6 -2 -15 3 -20 5 -5 9 -1 9 11 0 23 -2 24 -12 9z"/>
<path d="M970 680 c-9 -6 -10 -10 -3 -10 6 0 15 5 18 10 8 12 4 12 -15 0z"/>
<path d="M1005 680 c-3 -6 1 -7 9 -4 18 7 21 14 7 14 -6 0 -13 -4 -16 -10z"/>
<path d="M2184 668 c3 -15 26 -23 26 -8 0 6 -4 9 -9 6 -5 -4 -12 -1 -14 4 -3
6 -4 5 -3 -2z"/>
<path d="M968 653 c-21 -5 -23 -19 -5 -29 6 -4 9 -4 5 1 -4 4 0 14 10 21 18
14 17 14 -10 7z"/>
<path d="M2216 642 c-3 -5 1 -9 9 -9 8 0 12 4 9 9 -3 4 -7 8 -9 8 -2 0 -6 -4
-9 -8z"/>
<path d="M2240 620 c-9 -6 -10 -10 -3 -10 6 0 15 5 18 10 8 12 4 12 -15 0z"/>
<path d="M994 600 c0 -13 4 -16 10 -10 7 7 7 13 0 20 -6 6 -10 3 -10 -10z"/>
<path d="M2184 589 c-3 -6 -3 -13 0 -16 3 -4 6 -1 6 5 0 6 7 9 15 6 8 -4 15
-4 15 -1 0 11 -30 16 -36 6z"/>
<path d="M2236 587 c3 -10 9 -15 12 -12 3 3 0 11 -7 18 -10 9 -11 8 -5 -6z"/>
<path d="M930 565 c0 -8 4 -15 10 -15 5 0 7 7 4 15 -4 8 -8 15 -10 15 -2 0 -4
-7 -4 -15z"/>
<path d="M2193 532 c-8 -14 -8 -19 1 -19 7 0 13 9 13 19 1 10 1 18 0 18 -1 0
-7 -8 -14 -18z"/>
<path d="M2187 459 c7 -7 15 -10 18 -7 3 3 -2 9 -12 12 -14 6 -15 5 -6 -5z"/>
<path d="M956 418 c3 -5 10 -6 15 -3 13 9 11 12 -6 12 -8 0 -12 -4 -9 -9z"/>
<path d="M775 409 c-4 -6 -5 -12 -2 -15 2 -3 7 2 10 11 7 17 1 20 -8 4z"/>
</g>
</svg>
